<?xml version="1.0" standalone="no"?>
<svg viewBox="0 0 200 200" xmlns="http://www.w3.org/2000/svg">
  <path fill="#FF0066" d="M26.4,-44.6C38.2,-38.9,54.7,-40,60.3,-33.7C66,-27.4,60.9,-13.7,62.1,0.7C63.2,15,70.7,30.1,63.8,34.4C57,38.7,36,32.2,22.9,38.6C9.9,45,5,64.2,-2.6,68.6C-10.1,73,-20.1,62.7,-30.5,54.7C-40.9,46.8,-51.5,41.4,-54.3,32.7C-57.1,23.9,-52.1,12,-54.4,-1.3C-56.6,-14.6,-66.2,-29.1,-61.2,-34.2C-56.3,-39.2,-36.9,-34.7,-24.2,-40C-11.6,-45.3,-5.8,-60.3,0.7,-61.6C7.3,-62.8,14.5,-50.3,26.4,-44.6Z" transform="translate(100 100)" />
</svg>
